<svg width="20" height="19" viewBox="0 0 20 19" fill="none" xmlns="http://www.w3.org/2000/svg">
<path d="M19.4909 0.352444C19.2859 0.178776 19.0377 0.0638861 18.7727 0.019986C18.5077 -0.023914 18.2357 0.00481625 17.9857 0.103123L0.93955 6.79784C0.640563 6.91176 0.38731 7.12079 0.218787 7.39276C0.0502646 7.66474 -0.0241838 7.98456 0.00690595 8.303C0.034643 8.62131 0.164823 8.92206 0.377925 9.16013C0.591026 9.3982 0.875564 9.56078 1.18887 9.62348L5.51966 10.4822V15.8934C5.51951 16.1862 5.60632 16.4723 5.76908 16.7157C5.93184 16.959 6.16321 17.1485 6.43384 17.2601C6.61294 17.3322 6.80405 17.3698 6.99712 17.3709C7.19117 17.3716 7.3834 17.3335 7.56257 17.259C7.74174 17.1845 7.90425 17.075 8.04057 16.9369L10.4414 14.5452L14.0704 17.7402C14.3383 17.9765 14.6828 18.1078 15.04 18.1096C15.1971 18.1128 15.3535 18.0878 15.5017 18.0357C15.7454 17.9586 15.9647 17.8193 16.138 17.6314C16.3113 17.4435 16.4326 17.2137 16.4898 16.9646L19.9618 1.8022C20.0225 1.54056 20.0107 1.26734 19.9277 1.0119C19.8447 0.756457 19.6937 0.528467 19.4909 0.352444ZM6.08294 9.0879L1.48436 8.17372L14.3752 3.1042L6.08294 9.0879ZM6.99712 15.8934V11.5165L9.32411 13.5664L6.99712 15.8934ZM15.0493 16.6322L7.44035 9.93744L18.4012 2.02382L15.0493 16.6322Z" fill="white"/>
</svg>
