<svg width="21" height="20" viewBox="0 0 21 20" fill="none" xmlns="http://www.w3.org/2000/svg">
<path d="M15.5 9C16.9587 9 18.3576 9.57946 19.3891 10.6109C20.4205 11.6424 21 13.0413 21 14.5C21 15.9587 20.4205 17.3576 19.3891 18.3891C18.3576 19.4205 16.9587 20 15.5 20C14.0413 20 12.6424 19.4205 11.6109 18.3891C10.5795 17.3576 10 15.9587 10 14.5C10 13.0413 10.5795 11.6424 11.6109 10.6109C12.6424 9.57946 14.0413 9 15.5 9ZM15.5 11L15.41 11.007C15.3101 11.0253 15.2181 11.0735 15.1463 11.1453C15.0745 11.2171 15.0263 11.3091 15.008 11.409L15 11.5V14H12.498L12.408 14.008C12.3081 14.0263 12.2161 14.0745 12.1443 14.1463C12.0725 14.2181 12.0243 14.3101 12.006 14.41L11.998 14.5L12.006 14.59C12.0243 14.6899 12.0725 14.7819 12.1443 14.8537C12.2161 14.9255 12.3081 14.9737 12.408 14.992L12.498 15H15V17.503L15.008 17.593C15.0263 17.6929 15.0745 17.7849 15.1463 17.8567C15.2181 17.9285 15.3101 17.9767 15.41 17.995L15.5 18.003L15.59 17.995C15.6899 17.9767 15.7819 17.9285 15.8537 17.8567C15.9255 17.7849 15.9737 17.6929 15.992 17.593L16 17.503V15L18.504 15.001L18.594 14.993C18.6939 14.9747 18.7859 14.9265 18.8577 14.8547C18.9295 14.7829 18.9777 14.6909 18.996 14.591L19.004 14.501L18.996 14.411C18.9777 14.311 18.9293 14.2189 18.8573 14.1471C18.7853 14.0752 18.6931 14.0271 18.593 14.009L18.503 14.001H16V11.501L15.992 11.411C15.9739 11.3109 15.9258 11.2187 15.8539 11.1467C15.7821 11.0747 15.69 11.0263 15.59 11.008L15.5 11ZM12.254 7C12.6499 7.00008 13.0387 7.10459 13.3813 7.303C13.7238 7.5014 14.0079 7.78667 14.205 8.13C13.6798 8.23586 13.1699 8.40685 12.687 8.639C12.561 8.54812 12.4094 8.49946 12.254 8.5H7.752C7.55309 8.5 7.36232 8.57902 7.22167 8.71967C7.08102 8.86032 7.002 9.05109 7.002 9.25V13.499C7.002 14.909 7.976 16.093 9.288 16.414C9.45946 16.9741 9.70675 17.508 10.023 18.001L10.003 18C8.80926 18 7.66441 17.5258 6.82031 16.6817C5.97621 15.8376 5.502 14.6927 5.502 13.499V9.25C5.502 8.65326 5.73905 8.08097 6.16101 7.65901C6.58297 7.23705 7.15526 7 7.752 7H12.254ZM5.406 7C5.00452 7.41801 4.7224 7.93598 4.589 8.5H2.25C2.05109 8.5 1.86032 8.57902 1.71967 8.71967C1.57902 8.86032 1.5 9.05109 1.5 9.25V11.999C1.49994 12.3769 1.5855 12.7499 1.75027 13.0899C1.91504 13.43 2.15473 13.7283 2.45133 13.9625C2.74793 14.1966 3.09374 14.3605 3.46277 14.4418C3.83179 14.5231 4.21445 14.5198 4.582 14.432C4.667 14.936 4.822 15.417 5.035 15.864C4.44228 16.0226 3.82103 16.0427 3.21929 15.9228C2.61756 15.8029 2.05145 15.5463 1.56475 15.1727C1.07805 14.7991 0.683789 14.3185 0.412463 13.7682C0.141138 13.2179 1.23168e-05 12.6126 1.69987e-08 11.999V9.25C-7.00219e-05 8.67987 0.216295 8.13098 0.605369 7.71425C0.994443 7.29751 1.52721 7.04402 2.096 7.005L2.25 7H5.406ZM17.75 7C18.3467 7 18.919 7.23705 19.341 7.65901C19.7629 8.08097 20 8.65326 20 9.25V9.81C18.791 8.64668 17.1778 7.99782 15.5 8L15.255 8.005C15.1018 7.63182 14.8795 7.29086 14.6 7H17.75ZM16.5 1C17.163 1 17.7989 1.26339 18.2678 1.73223C18.7366 2.20107 19 2.83696 19 3.5C19 4.16304 18.7366 4.79893 18.2678 5.26777C17.7989 5.73661 17.163 6 16.5 6C15.837 6 15.2011 5.73661 14.7322 5.26777C14.2634 4.79893 14 4.16304 14 3.5C14 2.83696 14.2634 2.20107 14.7322 1.73223C15.2011 1.26339 15.837 1 16.5 1ZM10 0C10.7956 0 11.5587 0.316071 12.1213 0.87868C12.6839 1.44129 13 2.20435 13 3C13 3.79565 12.6839 4.55871 12.1213 5.12132C11.5587 5.68393 10.7956 6 10 6C9.20435 6 8.44129 5.68393 7.87868 5.12132C7.31607 4.55871 7 3.79565 7 3C7 2.20435 7.31607 1.44129 7.87868 0.87868C8.44129 0.316071 9.20435 0 10 0ZM3.5 1C4.16304 1 4.79893 1.26339 5.26777 1.73223C5.73661 2.20107 6 2.83696 6 3.5C6 4.16304 5.73661 4.79893 5.26777 5.26777C4.79893 5.73661 4.16304 6 3.5 6C2.83696 6 2.20107 5.73661 1.73223 5.26777C1.26339 4.79893 1 4.16304 1 3.5C1 2.83696 1.26339 2.20107 1.73223 1.73223C2.20107 1.26339 2.83696 1 3.5 1ZM16.5 2.5C16.2348 2.5 15.9804 2.60536 15.7929 2.79289C15.6054 2.98043 15.5 3.23478 15.5 3.5C15.5 3.76522 15.6054 4.01957 15.7929 4.20711C15.9804 4.39464 16.2348 4.5 16.5 4.5C16.7652 4.5 17.0196 4.39464 17.2071 4.20711C17.3946 4.01957 17.5 3.76522 17.5 3.5C17.5 3.23478 17.3946 2.98043 17.2071 2.79289C17.0196 2.60536 16.7652 2.5 16.5 2.5ZM10 1.5C9.60218 1.5 9.22064 1.65804 8.93934 1.93934C8.65804 2.22064 8.5 2.60218 8.5 3C8.5 3.39782 8.65804 3.77936 8.93934 4.06066C9.22064 4.34196 9.60218 4.5 10 4.5C10.3978 4.5 10.7794 4.34196 11.0607 4.06066C11.342 3.77936 11.5 3.39782 11.5 3C11.5 2.60218 11.342 2.22064 11.0607 1.93934C10.7794 1.65804 10.3978 1.5 10 1.5ZM3.5 2.5C3.23478 2.5 2.98043 2.60536 2.79289 2.79289C2.60536 2.98043 2.5 3.23478 2.5 3.5C2.5 3.76522 2.60536 4.01957 2.79289 4.20711C2.98043 4.39464 3.23478 4.5 3.5 4.5C3.76522 4.5 4.01957 4.39464 4.20711 4.20711C4.39464 4.01957 4.5 3.76522 4.5 3.5C4.5 3.23478 4.39464 2.98043 4.20711 2.79289C4.01957 2.60536 3.76522 2.5 3.5 2.5Z" fill="white"/>
</svg>
