<svg width="15" height="15" viewBox="0 0 15 15" fill="none" xmlns="http://www.w3.org/2000/svg">
<path fill-rule="evenodd" clip-rule="evenodd" d="M7.5 3C7.77614 3 8 3.22386 8 3.5V4.5409C8.30293 4.59207 8.58815 4.69207 8.82956 4.84559C9.2111 5.08822 9.5 5.48225 9.5 6C9.5 6.27614 9.27614 6.5 9 6.5C8.72386 6.5 8.5 6.27614 8.5 6C8.5 5.89775 8.4539 5.79178 8.29294 5.68941C8.12166 5.58049 7.84648 5.5 7.5 5.5C7.28712 5.5 7.11256 5.50036 6.95882 5.51374C6.80461 5.52716 6.70837 5.55129 6.64801 5.5791C6.59928 5.60156 6.57645 5.62448 6.55781 5.65907C6.53379 5.70365 6.5 5.80176 6.5 6C6.5 6.17744 6.57748 6.33038 6.78884 6.50651C7.01667 6.69637 7.33444 6.8582 7.72361 7.05279C7.73262 7.05729 7.74167 7.06182 7.75077 7.06636C8.10597 7.24389 8.52503 7.45334 8.85134 7.72526C9.20248 8.01788 9.5 8.42744 9.5 9C9.5 9.30176 9.45004 9.57865 9.3225 9.81532C9.18958 10.062 8.99303 10.2266 8.77051 10.3291C8.55962 10.4263 8.33273 10.4647 8.12788 10.4825C8.08579 10.4862 8.04307 10.4891 8 10.4913V11.5C8 11.7761 7.77614 12 7.5 12C7.22386 12 7 11.7761 7 11.5V10.4693C6.71236 10.4314 6.43154 10.3541 6.18918 10.2145C5.76793 9.97186 5.5 9.55945 5.5 9C5.5 8.72386 5.72386 8.5 6 8.5C6.27614 8.5 6.5 8.72386 6.5 9C6.5 9.19055 6.56707 9.27814 6.68832 9.34799C6.84823 9.4401 7.11981 9.5 7.5 9.5C7.71288 9.5 7.88744 9.49964 8.04118 9.48626C8.19539 9.47284 8.29163 9.44871 8.35199 9.4209C8.40072 9.39844 8.42355 9.37552 8.44219 9.34093C8.46621 9.29635 8.5 9.19824 8.5 9C8.5 8.82256 8.42252 8.66962 8.21116 8.49349C7.98333 8.30363 7.66556 8.1418 7.27639 7.94721C7.26738 7.94271 7.25833 7.93818 7.24923 7.93364C6.89403 7.75611 6.47497 7.54666 6.14866 7.27474C5.79752 6.98212 5.5 6.57256 5.5 6C5.5 5.69824 5.54996 5.42135 5.6775 5.18468C5.81042 4.93802 6.00697 4.77344 6.22949 4.6709C6.44038 4.57371 6.66727 4.53534 6.87212 4.51751C6.91421 4.51384 6.95693 4.51095 7 4.50866V3.5C7 3.22386 7.22386 3 7.5 3Z" fill="white"/>
<path fill-rule="evenodd" clip-rule="evenodd" d="M7.5 1.5C4.18629 1.5 1.5 4.18629 1.5 7.5C1.5 10.8137 4.18629 13.5 7.5 13.5C10.8137 13.5 13.5 10.8137 13.5 7.5C13.5 4.18629 10.8137 1.5 7.5 1.5ZM0.5 7.5C0.5 3.63401 3.63401 0.5 7.5 0.5C11.366 0.5 14.5 3.63401 14.5 7.5C14.5 11.366 11.366 14.5 7.5 14.5C3.63401 14.5 0.5 11.366 0.5 7.5Z" fill="white"/>
</svg>
