<svg width="15" height="7" viewBox="0 0 15 7" fill="none" xmlns="http://www.w3.org/2000/svg">
<path fill-rule="evenodd" clip-rule="evenodd" d="M2 1H13C13.2652 1 13.5196 1.10536 13.7071 1.29289C13.8946 1.48043 14 1.73478 14 2V5C14 5.26522 13.8946 5.51957 13.7071 5.70711C13.5196 5.89464 13.2652 6 13 6H2C1.73478 6 1.48043 5.89464 1.29289 5.70711C1.10536 5.51957 1 5.26522 1 5V2C1 1.73478 1.10536 1.48043 1.29289 1.29289C1.48043 1.10536 1.73478 1 2 1ZM0 2C0 1.46957 0.210714 0.960859 0.585786 0.585786C0.960859 0.210714 1.46957 0 2 0H13C13.5304 0 14.0391 0.210714 14.4142 0.585786C14.7893 0.960859 15 1.46957 15 2V5C15 5.53043 14.7893 6.03914 14.4142 6.41421C14.0391 6.78929 13.5304 7 13 7H2C1.46957 7 0.960859 6.78929 0.585786 6.41421C0.210714 6.03914 0 5.53043 0 5V2ZM4.5 2.75C4.30109 2.75 4.11032 2.82902 3.96967 2.96967C3.82902 3.11032 3.75 3.30109 3.75 3.5C3.75 3.69891 3.82902 3.88968 3.96967 4.03033C4.11032 4.17098 4.30109 4.25 4.5 4.25C4.69891 4.25 4.88968 4.17098 5.03033 4.03033C5.17098 3.88968 5.25 3.69891 5.25 3.5C5.25 3.30109 5.17098 3.11032 5.03033 2.96967C4.88968 2.82902 4.69891 2.75 4.5 2.75ZM6.75 3.5C6.75 3.30109 6.82902 3.11032 6.96967 2.96967C7.11032 2.82902 7.30109 2.75 7.5 2.75C7.69891 2.75 7.88968 2.82902 8.03033 2.96967C8.17098 3.11032 8.25 3.30109 8.25 3.5C8.25 3.69891 8.17098 3.88968 8.03033 4.03033C7.88968 4.17098 7.69891 4.25 7.5 4.25C7.30109 4.25 7.11032 4.17098 6.96967 4.03033C6.82902 3.88968 6.75 3.69891 6.75 3.5ZM10.5 2.75C10.3011 2.75 10.1103 2.82902 9.96967 2.96967C9.82902 3.11032 9.75 3.30109 9.75 3.5C9.75 3.69891 9.82902 3.88968 9.96967 4.03033C10.1103 4.17098 10.3011 4.25 10.5 4.25C10.6989 4.25 10.8897 4.17098 11.0303 4.03033C11.171 3.88968 11.25 3.69891 11.25 3.5C11.25 3.30109 11.171 3.11032 11.0303 2.96967C10.8897 2.82902 10.6989 2.75 10.5 2.75Z" fill="white"/>
</svg>
