<svg width="20" height="11" viewBox="0 0 20 11" fill="none" xmlns="http://www.w3.org/2000/svg">
<path d="M19.525 10.525C19.275 10.775 18.979 10.9 18.637 10.9C18.295 10.9 17.9994 10.775 17.75 10.525L10.425 3.19999L3.07505 10.55C2.84172 10.7833 2.55005 10.9 2.20005 10.9C1.85005 10.9 1.55005 10.775 1.30005 10.525C1.05005 10.275 0.925049 9.97899 0.925049 9.63699C0.925049 9.29499 1.05005 8.99933 1.30005 8.74999L9.72505 0.349992C9.82505 0.249992 9.93338 0.178993 10.05 0.136993C10.1667 0.094993 10.2917 0.0743261 10.425 0.0749927C10.5584 0.0749927 10.6834 0.0959924 10.8 0.137992C10.9167 0.179992 11.025 0.250659 11.125 0.349992L19.55 8.77499C19.7834 9.00833 19.9 9.29599 19.9 9.63799C19.9 9.97999 19.775 10.2757 19.525 10.525Z" fill="white"/>
</svg>
