<svg width="19" height="23" viewBox="0 0 19 23" fill="none" xmlns="http://www.w3.org/2000/svg">
<path d="M11.5 8.497C11.5005 9.0277 11.2902 9.53687 10.9153 9.91251C10.5404 10.2881 10.0317 10.4995 9.501 10.5C8.9703 10.5005 8.46113 10.2902 8.08549 9.91533C7.70986 9.54045 7.49853 9.0317 7.498 8.501C7.49774 8.23823 7.54923 7.97797 7.64955 7.7351C7.74987 7.49222 7.89704 7.27149 8.08267 7.08549C8.45755 6.70986 8.9663 6.49853 9.497 6.498C10.0277 6.49747 10.5369 6.70778 10.9125 7.08267C11.2881 7.45755 11.4995 7.9663 11.5 8.497ZM13 12.313V12.853C13 13.938 11.51 14.75 9.5 14.75C7.49 14.75 6 13.937 6 12.854V12.313C5.99961 12.2065 6.0202 12.1011 6.0606 12.0026C6.10101 11.9041 6.16043 11.8145 6.23547 11.739C6.31052 11.6635 6.39971 11.6035 6.49795 11.5625C6.59619 11.5215 6.70154 11.5003 6.808 11.5H12.192C12.2985 11.5003 12.4038 11.5215 12.5021 11.5625C12.6003 11.6035 12.6895 11.6635 12.7645 11.739C12.8396 11.8145 12.899 11.9041 12.9394 12.0026C12.9798 12.1011 13.0004 12.2065 13 12.313ZM3.25 0C2.38805 0 1.5614 0.34241 0.951903 0.951903C0.34241 1.5614 0 2.38805 0 3.25V19.75C0 20.612 0.34241 21.4386 0.951903 22.0481C1.5614 22.6576 2.38805 23 3.25 23H18.25C18.4489 23 18.6397 22.921 18.7803 22.7803C18.921 22.6397 19 22.4489 19 22.25C19 22.0511 18.921 21.8603 18.7803 21.7197C18.6397 21.579 18.4489 21.5 18.25 21.5H3.25C2.82919 21.5 2.42248 21.3483 2.10439 21.0729C1.78629 20.7974 1.57812 20.4165 1.518 20H18.25C18.4489 20 18.6397 19.921 18.7803 19.7803C18.921 19.6397 19 19.4489 19 19.25V3.25C19 2.38805 18.6576 1.5614 18.0481 0.951903C17.4386 0.34241 16.612 0 15.75 0H3.25ZM17.5 3.25V18.5H1.5V3.25C1.5 2.284 2.284 1.5 3.25 1.5H15.75C16.716 1.5 17.5 2.284 17.5 3.25Z" fill="white"/>
</svg>
