<svg width="15" height="15" viewBox="0 0 15 15" fill="none" xmlns="http://www.w3.org/2000/svg">
<path d="M1.46163 15C1.05968 15 0.71547 14.857 0.42899 14.571C0.14251 14.285 -0.00048597 13.9408 1.24077e-06 13.5384V3.30694C1.24077e-06 2.90499 0.143241 2.56078 0.429721 2.2743C0.716201 1.98782 1.06017 1.84482 1.46163 1.84531H7.98417L2.92326 6.90621V12.0767H8.09379L13.1547 6.99756V13.5384C13.1547 13.9403 13.0114 14.2845 12.725 14.571C12.4385 14.8575 12.0945 15.0005 11.6931 15H1.46163ZM4.3849 10.6151V7.50913L9.6285 2.26553L12.7527 5.33496L7.49086 10.6151H4.3849ZM13.7942 4.29354L10.6699 1.22412L11.4555 0.43849C11.7479 0.146163 12.0982 0 12.5065 0C12.9147 0 13.2587 0.146163 13.5384 0.43849L14.5615 1.4799C14.8417 1.76005 14.9817 2.1011 14.9817 2.50304C14.9817 2.90499 14.8417 3.24604 14.5615 3.52619L13.7942 4.29354Z" fill="#4479BD"/>
</svg>
