<svg width="16" height="16" viewBox="0 0 16 16" fill="none" xmlns="http://www.w3.org/2000/svg">
<path d="M0 7.40778V14.5186C0 14.9115 0.183229 15.2883 0.509379 15.5661C0.83553 15.8439 1.27788 16 1.73913 16H14.2609C14.7221 16 15.1645 15.8439 15.4906 15.5661C15.8168 15.2883 16 14.9115 16 14.5186V7.40778C16 7.01489 15.8168 6.63808 15.4906 6.36026C15.1645 6.08245 14.7221 5.92637 14.2609 5.92637H12.1739C11.8972 5.92637 11.6318 6.02001 11.4361 6.18671C11.2404 6.3534 11.1304 6.57948 11.1304 6.81522C11.1304 7.05096 11.2404 7.27704 11.4361 7.44373C11.6318 7.61042 11.8972 7.70407 12.1739 7.70407H13.913V14.2223H2.08696V7.70407H3.82609C4.10283 7.70407 4.36825 7.61042 4.56394 7.44373C4.75963 7.27704 4.86957 7.05096 4.86957 6.81522C4.86957 6.57948 4.75963 6.3534 4.56394 6.18671C4.36825 6.02001 4.10283 5.92637 3.82609 5.92637H1.73913C1.27788 5.92637 0.83553 6.08245 0.509379 6.36026C0.183229 6.63808 0 7.01489 0 7.40778ZM10.74 4.48125L9.04348 3.0376V9.18548C9.04348 9.42122 8.93354 9.6473 8.73785 9.814C8.54216 9.98069 8.27675 10.0743 8 10.0743C7.72325 10.0743 7.45784 9.98069 7.26215 9.814C7.06646 9.6473 6.95652 9.42122 6.95652 9.18548V3.0376L5.26 4.48347C5.16294 4.56615 5.0477 4.63173 4.92088 4.67648C4.79406 4.72123 4.65814 4.74426 4.52087 4.74426C4.3836 4.74426 4.24767 4.72123 4.12085 4.67648C3.99403 4.63173 3.8788 4.56615 3.78174 4.48347C3.68468 4.40079 3.60768 4.30263 3.55515 4.1946C3.50262 4.08658 3.47558 3.97079 3.47558 3.85387C3.47558 3.73694 3.50262 3.62116 3.55515 3.51313C3.60768 3.4051 3.68468 3.30694 3.78174 3.22426L7.26 0.26143C7.35694 0.178566 7.47214 0.112817 7.59897 0.0679552C7.72581 0.0230931 7.86179 0 7.99913 0C8.13647 0 8.27245 0.0230931 8.39929 0.0679552C8.52613 0.112817 8.64132 0.178566 8.73826 0.26143L12.2165 3.22426C12.3136 3.30694 12.3906 3.4051 12.4431 3.51313C12.4956 3.62116 12.5227 3.73694 12.5227 3.85387C12.5227 4.09001 12.4126 4.31649 12.2165 4.48347C12.0205 4.65045 11.7546 4.74426 11.4774 4.74426C11.2002 4.74426 10.9343 4.65045 10.7383 4.48347L10.74 4.48125Z" fill="white"/>
</svg>
