<svg width="22" height="21" viewBox="0 0 22 21" fill="none" xmlns="http://www.w3.org/2000/svg">
<path d="M21 11.438C21 15.208 21 17.094 19.828 18.266C18.657 19.438 16.771 19.438 13 19.438H9C5.229 19.438 3.343 19.438 2.172 18.266C1 17.094 1 15.209 1 11.438C1 7.66499 1 5.77999 2.172 4.60899C3.343 3.43799 5.229 3.43799 9 3.43799H13C16.771 3.43799 18.657 3.43799 19.828 4.60899C20.492 5.27299 20.78 6.16499 20.904 7.49999" stroke="white" stroke-width="1.5" stroke-linecap="round"/>
<path d="M2.98804 4C3.10004 3.069 3.33504 2.426 3.82504 1.937C4.76504 1 6.27904 1 9.30704 1H12.518C15.546 1 17.059 1 18 1.937C18.49 2.426 18.725 3.069 18.837 4" stroke="white" stroke-width="1.5"/>
<path d="M16.5 9.43799C17.3284 9.43799 18 8.76642 18 7.93799C18 7.10956 17.3284 6.43799 16.5 6.43799C15.6716 6.43799 15 7.10956 15 7.93799C15 8.76642 15.6716 9.43799 16.5 9.43799Z" stroke="white" stroke-width="1.5"/>
<path d="M1 11.938L2.752 10.405C3.19114 10.0211 3.75974 9.81834 4.34272 9.83783C4.9257 9.85733 5.47949 10.0976 5.892 10.51L10.182 14.8C10.515 15.1327 10.9547 15.3372 11.4237 15.3777C11.8927 15.4181 12.361 15.2918 12.746 15.021L13.045 14.811C13.6007 14.4209 14.2723 14.2309 14.95 14.2719C15.6277 14.313 16.2714 14.5827 16.776 15.037L20 17.937" stroke="white" stroke-width="1.5" stroke-linecap="round"/>
</svg>
