<svg width="31" height="31" viewBox="0 0 31 31" fill="none" xmlns="http://www.w3.org/2000/svg">
<path d="M9.22974 7.80682C10.1402 5.47062 11.8385 3.52608 14.0309 2.30951C16.2233 1.09294 18.772 0.680841 21.2361 1.1445C23.7002 1.60815 25.9248 2.9184 27.5251 4.84863C29.1254 6.77886 30.0008 9.20768 29.9999 11.715C29.9997 14.1994 29.1392 16.607 27.5648 18.5287C25.9903 20.4504 23.799 21.7677 21.3633 22.2566" stroke="white" stroke-linecap="round" stroke-linejoin="round"/>
<path d="M13.8332 29.3414C12.8027 29.004 11.8856 28.3884 11.183 27.5625C10.4805 26.7365 10.0199 25.7325 9.85226 24.6612C9.68457 23.59 9.81627 22.4933 10.2328 21.4922C10.6493 20.4911 11.3345 19.6246 12.2126 18.9885C13.0907 18.3524 14.1275 17.9714 15.2086 17.8876C16.2896 17.8038 17.3728 18.0205 18.3384 18.5137C19.3041 19.0069 20.1146 19.7574 20.6804 20.6823C21.2462 21.6073 21.5454 22.6706 21.5448 23.7549C21.5443 25.0039 21.1461 26.2202 20.4078 27.2276C19.6695 28.235 18.6296 28.9811 17.4388 29.3577" stroke="white" stroke-linecap="round" stroke-linejoin="round"/>
<path d="M13.8334 26.8607C13.2792 26.5375 12.8197 26.0742 12.501 25.5174C12.1823 24.9605 12.0156 24.3297 12.0176 23.6881C12.0197 23.0465 12.1904 22.4167 12.5127 21.8619C12.835 21.3071 13.2974 20.8468 13.8537 20.5272C14.4101 20.2075 15.0406 20.0398 15.6822 20.0407C16.3238 20.0417 16.9539 20.2113 17.5092 20.5326C18.0646 20.854 18.5257 21.3157 18.8463 21.8714C19.1669 22.4272 19.3357 23.0575 19.3358 23.6991C19.336 24.3549 19.1601 24.9988 18.8264 25.5635C18.4928 26.1281 18.0136 26.5928 17.439 26.909M15.6634 29.7183V24.775M6.88254 23.0983C5.04785 22.6455 3.44236 21.5368 2.36911 19.9814C1.29587 18.426 0.829103 16.5316 1.05693 14.6556C1.28475 12.7797 2.19141 11.052 3.60575 9.79875C5.0201 8.54548 6.8443 7.85329 8.73403 7.85284H8.73923C9.75515 7.85245 10.7612 8.05217 11.6999 8.44058C12.6387 8.829 13.4917 9.39851 14.2104 10.1166C14.929 10.8347 15.4992 11.6873 15.8883 12.6257C16.2774 13.5642 16.4779 14.5701 16.4783 15.586V15.5882C16.4787 16.3722 16.3598 17.1517 16.1259 17.9" stroke="white" stroke-linecap="round" stroke-linejoin="round"/>
<path d="M6.88275 19.8943C6.1015 19.5626 5.42469 19.0254 4.92426 18.3399C4.42382 17.6544 4.11844 16.8461 4.04057 16.001C3.9627 15.1558 4.11525 14.3053 4.48201 13.5399C4.84876 12.7745 5.41603 12.1228 6.12352 11.6539C6.83102 11.1851 7.65232 10.9166 8.50014 10.8772C9.34797 10.8377 10.1907 11.0286 10.9386 11.4297C11.6866 11.8308 12.312 12.427 12.7483 13.1551C13.1846 13.8831 13.4155 14.7157 13.4165 15.5645C13.4161 16.4982 13.1377 17.4106 12.6167 18.1854C12.0957 18.9603 11.3558 19.5624 10.4913 19.9151M8.71862 23.3385V16.9088M13.1176 9.19801C13.7002 7.77815 14.7577 6.6046 16.1095 5.87783C17.4613 5.15105 19.0234 4.91613 20.5292 5.21318C22.0349 5.51024 23.3908 6.32085 24.3652 7.50655C25.3397 8.69225 25.8723 10.1795 25.872 11.7143C25.8716 13.1971 25.3737 14.6369 24.4581 15.8033C23.5425 16.9696 22.262 17.7951 20.8217 18.1476M19.2424 13.5196V18.7878" stroke="white" stroke-linecap="round" stroke-linejoin="round"/>
<path d="M15.6634 24.6464C16.1956 24.6464 16.627 24.215 16.627 23.6828C16.627 23.1506 16.1956 22.7191 15.6634 22.7191C15.1312 22.7191 14.6997 23.1506 14.6997 23.6828C14.6997 24.215 15.1312 24.6464 15.6634 24.6464Z" stroke="white" stroke-linecap="round" stroke-linejoin="round"/>
<path d="M8.7185 16.8315C9.41088 16.8315 9.97216 16.2703 9.97216 15.5779C9.97216 14.8855 9.41088 14.3242 8.7185 14.3242C8.02613 14.3242 7.46484 14.8855 7.46484 15.5779C7.46484 16.2703 8.02613 16.8315 8.7185 16.8315Z" stroke="white" stroke-linecap="round" stroke-linejoin="round"/>
<path d="M19.2446 13.5249C20.261 13.5249 21.085 12.701 21.085 11.6846C21.085 10.6682 20.261 9.84424 19.2446 9.84424C18.2282 9.84424 17.4043 10.6682 17.4043 11.6846C17.4043 12.701 18.2282 13.5249 19.2446 13.5249Z" stroke="white" stroke-linecap="round" stroke-linejoin="round"/>
</svg>
