<svg width="44" height="28" viewBox="0 0 44 28" fill="none" xmlns="http://www.w3.org/2000/svg">
<path d="M15.959 2.89136H27.7876V24.1454H15.959V2.89136Z" fill="#FF5F00"/>
<path d="M16.7104 13.5185C16.7104 9.20013 18.7381 5.36982 21.8548 2.89138C19.5643 1.08895 16.6729 0 13.5186 0C6.04567 0 0 6.04567 0 13.5185C0 20.9911 6.04567 27.0369 13.5185 27.0369C16.6728 27.0369 19.5641 25.948 21.8548 24.1454C18.7381 21.7046 16.7104 17.8368 16.7104 13.5185Z" fill="#EB001B"/>
<path d="M43.7473 13.5185C43.7473 20.9911 37.7017 27.0369 30.2289 27.0369C27.0746 27.0369 24.1832 25.948 21.8926 24.1454C25.0469 21.6671 27.0371 17.8368 27.0371 13.5185C27.0371 9.20013 25.0092 5.36982 21.8926 2.89138C24.183 1.08895 27.0746 0 30.2289 0C37.7017 0 43.7473 6.0833 43.7473 13.5185Z" fill="#F79E1B"/>
</svg>
