<svg width="12" height="20" viewBox="0 0 12 20" fill="none" xmlns="http://www.w3.org/2000/svg">
<path d="M2 12C1.45 12 0.979002 11.804 0.587002 11.412C0.195002 11.02 -0.000664969 10.5493 1.69779e-06 10V2C1.69779e-06 1.45 0.196001 0.979002 0.588001 0.587002C0.980001 0.195002 1.45067 -0.000664969 2 1.69779e-06H10C10.55 1.69779e-06 11.021 0.196002 11.413 0.588002C11.805 0.980002 12.0007 1.45067 12 2V10C12 10.55 11.804 11.021 11.412 11.413C11.02 11.805 10.5493 12.0007 10 12H2ZM2 10H10V2H2V10ZM10 16V14H12V16H10ZM1.69779e-06 16V14H2V16H1.69779e-06ZM5 20V18H7V20H5ZM10 20V18H12C12 18.55 11.804 19.021 11.412 19.413C11.02 19.805 10.5493 20.0007 10 20ZM2 20C1.45 20 0.979002 19.804 0.587002 19.412C0.195002 19.02 -0.000664969 18.5493 1.69779e-06 18H2V20Z" fill="white"/>
</svg>
