<svg width="48" height="48" viewBox="0 0 48 48" fill="none" xmlns="http://www.w3.org/2000/svg">
<path d="M25.2 31.2C26.88 31.2 28.3 30.62 29.46 29.46C30.62 28.3 31.2 26.88 31.2 25.2V12H38.4V7.2H28.8V20.4C28.28 20 27.72 19.7 27.12 19.5C26.52 19.3 25.88 19.2 25.2 19.2C23.52 19.2 22.1 19.78 20.94 20.94C19.78 22.1 19.2 23.52 19.2 25.2C19.2 26.88 19.78 28.3 20.94 29.46C22.1 30.62 23.52 31.2 25.2 31.2ZM14.4 38.4C13.08 38.4 11.9496 37.9296 11.0088 36.9888C10.068 36.048 9.5984 34.9184 9.6 33.6V4.8C9.6 3.48 10.0704 2.3496 11.0112 1.4088C11.952 0.468004 13.0816 -0.00159593 14.4 4.0747e-06H43.2C44.52 4.0747e-06 45.6504 0.470404 46.5912 1.4112C47.532 2.352 48.0016 3.4816 48 4.8V33.6C48 34.92 47.5296 36.0504 46.5888 36.9912C45.648 37.932 44.5184 38.4016 43.2 38.4H14.4ZM14.4 33.6H43.2V4.8H14.4V33.6ZM4.8 48C3.48 48 2.3496 47.5296 1.4088 46.5888C0.468004 45.648 -0.00159593 44.5184 4.0747e-06 43.2V9.6H4.8V43.2H38.4V48H4.8Z" fill="white"/>
</svg>
