<svg width="16" height="16" viewBox="0 0 16 16" fill="none" xmlns="http://www.w3.org/2000/svg">
<path d="M7 1.99996C6.237 1.99996 5.525 2.21296 4.918 2.58396C4.85526 2.24837 4.74091 1.92453 4.579 1.62396C5.34029 1.20266 6.19835 0.987317 7.06836 0.999214C7.93838 1.01111 8.79023 1.24984 9.53972 1.69179C10.2892 2.13375 10.9104 2.76364 11.3419 3.51921C11.7734 4.27478 12.0002 5.12987 12 5.99996H14.501C14.8987 6.00023 15.2799 6.15838 15.561 6.43965C15.8421 6.72093 16 7.10231 16 7.49996V13.5C16 13.8978 15.842 14.2793 15.5607 14.5606C15.2794 14.8419 14.8978 15 14.5 15H8.5C8.10218 15 7.72064 14.8419 7.43934 14.5606C7.15804 14.2793 7 13.8978 7 13.5V11C6.30438 11.0008 5.61629 10.8561 4.98 10.575C4.993 10.235 5 9.87796 5 9.49996V9.46496C5.588 9.80496 6.271 9.99996 7 9.99996V7.49996C7 7.10214 7.15804 6.7206 7.43934 6.4393C7.72064 6.158 8.10218 5.99996 8.5 5.99996H11C11 4.93909 10.5786 3.92168 9.82843 3.17153C9.07828 2.42139 8.06087 1.99996 7 1.99996ZM11.9 6.99996C11.7033 7.96053 11.2289 8.84218 10.5355 9.5355C9.84222 10.2288 8.96057 10.7033 8 10.9V13.5C8 13.6326 8.05268 13.7597 8.14645 13.8535C8.24021 13.9473 8.36739 14 8.5 14H14.5C14.6326 14 14.7598 13.9473 14.8536 13.8535C14.9473 13.7597 15 13.6326 15 13.5V7.49996C15 7.36735 14.9473 7.24017 14.8536 7.14641C14.7598 7.05264 14.6326 6.99996 14.5 6.99996H11.9ZM10.874 6.99996H8.5C8.36739 6.99996 8.24021 7.05264 8.14645 7.14641C8.05268 7.24017 8 7.36735 8 7.49996V9.87396C8.69181 9.69473 9.3231 9.33374 9.82844 8.8284C10.3338 8.32306 10.6948 7.69177 10.874 6.99996ZM2.581 0.12496C2.664 0.197562 2.72068 0.295567 2.7422 0.403722C2.76372 0.511877 2.74889 0.624112 2.7 0.72296C2.69153 0.752216 2.68716 0.782504 2.687 0.81296C2.687 0.87596 2.703 0.99596 2.854 1.14596C2.927 1.21896 2.983 1.27096 3.044 1.32796C3.094 1.37396 3.147 1.42196 3.214 1.48796C3.344 1.61196 3.481 1.75796 3.604 1.94096C3.859 2.32396 4 2.80296 4 3.49996C4 4.35296 3.684 5.07996 3.191 5.52596L3.255 5.59996C3.535 5.94396 3.698 6.38996 3.8 6.82996C4 7.69996 4 8.74596 4 9.47496V9.49996C4 12.287 3.621 13.868 3.204 14.772C2.994 15.227 2.771 15.517 2.578 15.699C2.49953 15.7742 2.41301 15.8406 2.32 15.897C2.27741 15.9226 2.23295 15.945 2.187 15.964C2.187 15.964 2.074 16 2 16C1.926 16 1.813 15.964 1.813 15.964C1.76655 15.9461 1.72199 15.9237 1.68 15.897C1.58699 15.8406 1.50047 15.7742 1.422 15.699C1.229 15.516 1.006 15.227 0.796 14.772C0.379 13.868 0 12.287 0 9.49996V9.47496C0 8.74496 4.47035e-08 7.69996 0.2 6.82996C0.302 6.38996 0.465 5.94396 0.745 5.59996C0.765 5.57496 0.787 5.54996 0.809 5.52596C0.316 5.07996 0 4.35296 0 3.49996C0 3.17396 0.087 2.78496 0.207 2.42596C0.327 2.06596 0.495 1.69396 0.689 1.39396C0.92 1.00396 1.245 0.67696 1.497 0.45696C1.63516 0.335456 1.77934 0.220978 1.929 0.11396L1.959 0.09396L1.968 0.0869598L1.971 0.0849599L1.973 0.08396C2.0647 0.0228367 2.17402 -0.00628108 2.28397 0.00113339C2.39392 0.00854786 2.49834 0.052079 2.581 0.12496ZM2 4.99996C2.387 4.99896 3 4.56996 3 3.49996C3 2.94696 2.891 2.67596 2.771 2.49596C2.69804 2.39083 2.61388 2.29393 2.52 2.20696L2.396 2.09096C2.315 2.01496 2.22 1.92696 2.146 1.85396C2.03663 1.74573 1.94274 1.6229 1.867 1.48896C1.73971 1.6228 1.62769 1.77037 1.533 1.92896C1.393 2.14396 1.257 2.43896 1.156 2.74296C1.052 3.05296 1 3.32696 1 3.49996C1 4.57196 1.615 4.99996 2 4.99996ZM1.52 6.23196C1.378 6.40496 1.26 6.68096 1.174 7.05496C1.002 7.80296 1 8.74296 1 9.49996C1 12.213 1.371 13.632 1.704 14.353C1.814 14.59 1.917 14.748 2 14.853C2.11815 14.6986 2.21752 14.5308 2.296 14.353C2.629 13.632 3 12.213 3 9.49996C3 8.74296 2.998 7.80296 2.825 7.05496C2.739 6.68096 2.621 6.40496 2.48 6.23196C2.42484 6.15722 2.35231 6.09704 2.26868 6.05662C2.18505 6.0162 2.09283 5.99675 2 5.99996H1.998C1.90549 5.99699 1.81364 6.01656 1.73037 6.05698C1.6471 6.09739 1.5749 6.15744 1.52 6.23196Z" fill="white"/>
</svg>
