<svg width="136" height="136" viewBox="0 0 136 136" fill="none" xmlns="http://www.w3.org/2000/svg">
<path d="M126.286 77.7143H77.7143V126.286C77.7143 128.862 76.6908 131.333 74.869 133.155C73.0473 134.977 70.5764 136 68 136C65.4236 136 62.9527 134.977 61.131 133.155C59.3092 131.333 58.2857 128.862 58.2857 126.286V77.7143H9.71429C7.1379 77.7143 4.66703 76.6908 2.84525 74.869C1.02347 73.0473 0 70.5764 0 68C0 65.4236 1.02347 62.9528 2.84525 61.131C4.66703 59.3092 7.1379 58.2857 9.71429 58.2857H58.2857V9.71429C58.2857 7.1379 59.3092 4.66703 61.131 2.84525C62.9527 1.02346 65.4236 0 68 0C70.5764 0 73.0473 1.02346 74.869 2.84525C76.6908 4.66703 77.7143 7.1379 77.7143 9.71429V58.2857H126.286C128.862 58.2857 131.333 59.3092 133.155 61.131C134.977 62.9528 136 65.4236 136 68C136 70.5764 134.977 73.0473 133.155 74.869C131.333 76.6908 128.862 77.7143 126.286 77.7143Z" fill="white"/>
</svg>
