<svg width="148" height="148" viewBox="0 0 148 148" fill="none" xmlns="http://www.w3.org/2000/svg">
<path d="M41.1111 24.6667H24.6667V41.1111H41.1111V24.6667ZM0 18.5C0 13.5935 1.9491 8.88795 5.41852 5.41852C8.88795 1.9491 13.5935 0 18.5 0H47.2778C52.1843 0 56.8898 1.9491 60.3593 5.41852C63.8287 8.88795 65.7778 13.5935 65.7778 18.5V47.2778C65.7778 52.1843 63.8287 56.8898 60.3593 60.3593C56.8898 63.8287 52.1843 65.7778 47.2778 65.7778H18.5C13.5935 65.7778 8.88795 63.8287 5.41852 60.3593C1.9491 56.8898 0 52.1843 0 47.2778V18.5ZM18.5 12.3333C16.8645 12.3333 15.296 12.983 14.1395 14.1395C12.983 15.296 12.3333 16.8645 12.3333 18.5V47.2778C12.3333 50.6818 15.096 53.4444 18.5 53.4444H47.2778C48.9133 53.4444 50.4818 52.7947 51.6383 51.6383C52.7947 50.4818 53.4444 48.9133 53.4444 47.2778V18.5C53.4444 16.8645 52.7947 15.296 51.6383 14.1395C50.4818 12.983 48.9133 12.3333 47.2778 12.3333H18.5ZM24.6667 106.889H41.1111V123.333H24.6667V106.889ZM0 100.722C0 95.8157 1.9491 91.1102 5.41852 87.6407C8.88795 84.1713 13.5935 82.2222 18.5 82.2222H47.2778C52.1843 82.2222 56.8898 84.1713 60.3593 87.6407C63.8287 91.1102 65.7778 95.8157 65.7778 100.722V129.5C65.7778 134.407 63.8287 139.112 60.3593 142.581C56.8898 146.051 52.1843 148 47.2778 148H18.5C13.5935 148 8.88795 146.051 5.41852 142.581C1.9491 139.112 0 134.407 0 129.5V100.722ZM18.5 94.5556C16.8645 94.5556 15.296 95.2053 14.1395 96.3617C12.983 97.5182 12.3333 99.0867 12.3333 100.722V129.5C12.3333 132.904 15.096 135.667 18.5 135.667H47.2778C48.9133 135.667 50.4818 135.017 51.6383 133.86C52.7947 132.704 53.4444 131.136 53.4444 129.5V100.722C53.4444 99.0867 52.7947 97.5182 51.6383 96.3617C50.4818 95.2053 48.9133 94.5556 47.2778 94.5556H18.5ZM123.333 24.6667H106.889V41.1111H123.333V24.6667ZM100.722 0C95.8157 0 91.1102 1.9491 87.6407 5.41852C84.1713 8.88795 82.2222 13.5935 82.2222 18.5V47.2778C82.2222 52.1843 84.1713 56.8898 87.6407 60.3593C91.1102 63.8287 95.8157 65.7778 100.722 65.7778H129.5C134.407 65.7778 139.112 63.8287 142.581 60.3593C146.051 56.8898 148 52.1843 148 47.2778V18.5C148 13.5935 146.051 8.88795 142.581 5.41852C139.112 1.9491 134.407 0 129.5 0H100.722ZM94.5556 18.5C94.5556 16.8645 95.2053 15.296 96.3617 14.1395C97.5182 12.983 99.0867 12.3333 100.722 12.3333H129.5C131.136 12.3333 132.704 12.983 133.86 14.1395C135.017 15.296 135.667 16.8645 135.667 18.5V47.2778C135.667 48.9133 135.017 50.4818 133.86 51.6383C132.704 52.7947 131.136 53.4444 129.5 53.4444H100.722C99.0867 53.4444 97.5182 52.7947 96.3617 51.6383C95.2053 50.4818 94.5556 48.9133 94.5556 47.2778V18.5ZM82.2222 82.2222H104.833V104.833H82.2222V82.2222ZM125.389 104.833H104.833V125.389H82.2222V148H104.833V125.389H125.389V148H148V125.389H125.389V104.833ZM125.389 104.833V82.2222H148V104.833H125.389Z" fill="white"/>
</svg>
