<svg width="38" height="44" viewBox="0 0 38 44" fill="none" xmlns="http://www.w3.org/2000/svg">
<path d="M30.3186 28.8025C29.2387 28.8021 28.1709 29.0276 27.1853 29.4642C26.1997 29.9009 25.3185 30.5388 24.5995 31.3361L14.7174 25.0511C15.1439 24.0905 15.3641 23.0528 15.3641 22.0036C15.3641 20.9544 15.1439 19.9167 14.7174 18.9561L24.5995 12.6711C25.8888 14.0941 27.6726 14.9842 29.5954 15.1639C31.5182 15.3436 33.4389 14.7997 34.9746 13.6407C36.5103 12.4817 37.5482 10.7927 37.8816 8.91026C38.2149 7.02782 37.8192 5.09022 36.7732 3.48361C35.7273 1.877 34.1079 0.719374 32.2379 0.241452C30.3678 -0.236471 28.3845 0.000406294 26.6831 0.904872C24.9817 1.80934 23.6872 3.31497 23.0576 5.1217C22.428 6.92842 22.5095 8.90356 23.2859 10.6535L13.4038 16.9384C12.3671 15.7912 11.0027 14.9825 9.49126 14.6194C7.97983 14.2563 6.3926 14.3558 4.93961 14.9049C3.48663 15.454 2.23638 16.4267 1.35433 17.6942C0.472276 18.9618 0 20.4646 0 22.0036C0 23.5426 0.472276 25.0453 1.35433 26.3129C2.23638 27.5805 3.48663 28.5532 4.93961 29.1023C6.3926 29.6514 7.97983 29.7509 9.49126 29.3878C11.0027 29.0247 12.3671 28.216 13.4038 27.0688L23.2859 33.3537C22.6225 34.8531 22.4661 36.5244 22.84 38.1188C23.2139 39.7132 24.0981 41.1455 25.361 42.2026C26.6238 43.2597 28.1979 43.8851 29.8489 43.9856C31.4999 44.0862 33.1396 43.6565 34.524 42.7606C35.9083 41.8648 36.9633 40.5505 37.532 39.0135C38.1006 37.4765 38.1525 35.7989 37.6799 34.2303C37.2073 32.6618 36.2356 31.2861 34.9092 30.3081C33.5828 29.3301 31.9727 28.802 30.3186 28.8025ZM30.3186 2.40681C31.3578 2.40681 32.3737 2.71173 33.2377 3.28302C34.1018 3.85431 34.7753 4.66631 35.1729 5.61633C35.5706 6.56635 35.6747 7.61172 35.4719 8.62026C35.2692 9.62879 34.7688 10.5552 34.034 11.2823C33.2991 12.0094 32.3629 12.5046 31.3437 12.7052C30.3244 12.9058 29.268 12.8029 28.3079 12.4093C27.3478 12.0158 26.5272 11.3494 25.9498 10.4944C25.3725 9.63945 25.0643 8.63425 25.0643 7.60595C25.0643 6.22705 25.6179 4.90463 26.6033 3.9296C27.5886 2.95457 28.9251 2.40681 30.3186 2.40681ZM7.68471 27.2027C6.64551 27.2027 5.62965 26.8978 4.76558 26.3265C3.90152 25.7552 3.22806 24.9432 2.83038 23.9932C2.43269 23.0432 2.32864 21.9978 2.53138 20.9893C2.73412 19.9808 3.23454 19.0544 3.96936 18.3272C4.70419 17.6001 5.64042 17.105 6.65965 16.9043C7.67888 16.7037 8.73535 16.8067 9.69544 17.2002C10.6555 17.5937 11.4762 18.2601 12.0535 19.1151C12.6308 19.9701 12.939 20.9753 12.939 22.0036C12.939 23.3825 12.3854 24.7049 11.4001 25.6799C10.4147 26.655 9.07824 27.2027 7.68471 27.2027ZM30.3186 41.6004C29.2794 41.6004 28.2635 41.2955 27.3995 40.7242C26.5354 40.1529 25.862 39.3409 25.4643 38.3909C25.0666 37.4408 24.9625 36.3955 25.1653 35.3869C25.368 34.3784 25.8684 33.452 26.6033 32.7249C27.3381 31.9978 28.2743 31.5026 29.2935 31.302C30.3128 31.1014 31.3692 31.2043 32.3293 31.5978C33.2894 31.9914 34.11 32.6578 34.6874 33.5127C35.2647 34.3677 35.5729 35.3729 35.5729 36.4012C35.5729 37.084 35.437 37.7601 35.1729 38.3909C34.9089 39.0217 34.5219 39.5948 34.034 40.0776C33.546 40.5604 32.9668 40.9433 32.3293 41.2046C31.6919 41.4659 31.0086 41.6004 30.3186 41.6004Z" fill="white"/>
</svg>
