<svg width="200" height="53" viewBox="0 0 200 53" fill="none" xmlns="http://www.w3.org/2000/svg">
<path d="M30.2128 0V7.74784H19.1239V41.0749H11.0284V7.74784H0V0H30.2128Z" fill="#4479BD"/>
<path d="M51.3397 11.7314H58.9061V41.0674H51.3397V37.6054C49.0721 40.4626 45.8822 41.8913 41.7777 41.8913C37.8623 41.8913 34.5137 40.3946 31.7169 37.4013C28.9201 34.408 27.5217 30.7419 27.5217 26.4032C27.5217 22.0644 28.9201 18.3908 31.7169 15.405C34.5137 12.4117 37.8698 10.915 41.7777 10.915C45.8822 10.915 49.0721 12.3437 51.3397 15.2009V11.7314ZM37.3709 32.3595C38.8978 33.9091 40.8329 34.6801 43.1761 34.6801C45.5194 34.6801 47.4696 33.9091 49.0116 32.3595C50.5536 30.8175 51.3322 28.8295 51.3322 26.4032C51.3322 23.9768 50.5612 21.9963 49.0116 20.4468C47.462 18.9048 45.5194 18.1262 43.1761 18.1262C40.8329 18.1262 38.8903 18.8972 37.3709 20.4468C35.844 21.9963 35.0806 23.9768 35.0806 26.4032C35.0882 28.8295 35.8516 30.81 37.3709 32.3595Z" fill="#4479BD"/>
<path d="M82.8453 10.915C86.7985 10.915 90.1698 12.4117 92.9666 15.405C95.7634 18.3983 97.1617 22.0644 97.1617 26.4032C97.1617 30.7419 95.7634 34.4155 92.9666 37.4013C90.1698 40.3946 86.7985 41.8913 82.8453 41.8913C78.7408 41.8913 75.5661 40.4626 73.3438 37.6054V52.7987H65.7698V11.7314H73.3362V15.1934C75.5661 12.3437 78.7332 10.915 82.8453 10.915ZM75.6265 32.3595C77.1534 33.9091 79.0885 34.6801 81.4317 34.6801C83.775 34.6801 85.7252 33.9091 87.2672 32.3595C88.8092 30.8175 89.5878 28.8295 89.5878 26.4032C89.5878 23.9768 88.8168 21.9963 87.2672 20.4468C85.7176 18.9048 83.775 18.1262 81.4317 18.1262C79.0885 18.1262 77.1459 18.8972 75.6265 20.4468C74.0996 21.9963 73.3362 23.9768 73.3362 26.4032C73.3362 28.8295 74.0996 30.81 75.6265 32.3595Z" fill="#4479BD"/>
<path d="M153.657 10.915C156.861 10.915 159.515 11.9884 161.608 14.1427C163.702 16.297 164.745 19.2676 164.745 23.0621V41.0749H157.179V23.9994C157.179 22.0417 156.65 20.545 155.592 19.5095C154.533 18.4739 153.127 17.9523 151.366 17.9523C149.408 17.9523 147.844 18.5571 146.672 19.774C145.5 20.9834 144.911 22.8051 144.911 25.2315V41.0749H137.344V11.7314H144.911V15.0195C146.755 12.2832 149.665 10.915 153.657 10.915Z" fill="#4479BD"/>
<path d="M177.596 29.5098C178.616 33.1835 181.367 35.0278 185.865 35.0278C188.76 35.0278 190.952 34.0527 192.434 32.095L198.534 35.6174C195.639 39.805 191.375 41.8913 185.744 41.8913C180.891 41.8913 177.006 40.4248 174.066 37.492C171.125 34.5592 169.666 30.8629 169.666 26.4032C169.666 21.9812 171.11 18.3001 174.005 15.3445C176.9 12.389 180.611 10.915 185.154 10.915C189.455 10.915 193.008 12.4041 195.805 15.3748C198.602 18.3454 200 22.0266 200 26.4032C200 27.3782 199.902 28.4214 199.705 29.5098H177.596ZM177.475 23.6442H192.434C192.003 21.6486 191.111 20.1671 189.765 19.1844C188.412 18.2093 186.878 17.718 185.162 17.718C183.129 17.718 181.443 18.2396 180.113 19.2751C178.79 20.3107 177.905 21.7696 177.475 23.6442Z" fill="#4479BD"/>
<path d="M126.392 38.8526C125.727 39.3817 125.024 39.8655 124.275 40.2887L123.02 37.1669L122.204 35.126L121.252 32.745L118.719 26.4333C118.379 25.5868 117.571 25.0728 116.709 25.0728C116.444 25.0728 116.172 25.1257 115.908 25.2315C115.371 25.4431 114.955 25.8589 114.728 26.388C114.502 26.9247 114.494 27.5067 114.706 28.0434L117.223 34.3248L118.183 36.7134L119.007 38.7619L120.261 41.8761C119.445 42.0726 118.599 42.2163 117.737 42.2843L116.422 39.0037L115.537 36.7966L114.449 34.0754L112.393 28.958C111.932 27.8091 111.947 26.5392 112.438 25.3978C112.929 24.2488 113.836 23.3644 114.985 22.9034C117.366 21.9434 120.088 23.1074 121.04 25.4885L123.134 30.7041L124.215 33.3875L125.092 35.5796L126.392 38.8526Z" fill="#9EDDEE"/>
<path d="M116.474 16.0474C110.737 16.0474 106.073 20.7112 106.073 26.4484C106.073 31.1802 109.256 35.1864 113.595 36.4412L112.264 33.1304C110.049 31.732 108.568 29.2527 108.568 26.4408C108.568 22.0869 112.113 18.5342 116.474 18.5342C120.836 18.5342 124.381 22.0793 124.381 26.4408C124.381 27.1891 124.275 27.9148 124.079 28.6026L125.371 31.8227C126.324 30.2505 126.875 28.4061 126.875 26.4332C126.875 20.7112 122.212 16.0474 116.474 16.0474Z" fill="#5EA5DB"/>
<path d="M116.475 10.5522C107.714 10.5522 100.586 17.6803 100.586 26.441C100.586 35.0278 107.434 42.05 115.961 42.3222L114.57 38.8602C108.545 37.938 103.919 32.7224 103.919 26.441C103.919 19.5171 109.558 13.8781 116.482 13.8781C123.406 13.8781 129.045 19.5171 129.045 26.441C129.045 29.3738 128.032 32.0799 126.339 34.2266L127.722 37.6735C130.595 34.7935 132.379 30.8251 132.379 26.4485C132.371 17.6803 125.243 10.5522 116.475 10.5522Z" fill="#4479BD"/>
</svg>
