<svg width="40" height="38" viewBox="0 0 40 38" fill="none" xmlns="http://www.w3.org/2000/svg">
<path d="M20 2.5C19.5404 2.5 19.0852 2.59053 18.6606 2.76642C18.236 2.94231 17.8501 3.20012 17.5251 3.52513C17.2001 3.85013 16.9423 4.23597 16.7664 4.66061C16.5905 5.08525 16.5 5.54037 16.5 6C16.5 6.45963 16.5905 6.91475 16.7664 7.33939C16.9423 7.76403 17.2001 8.14987 17.5251 8.47487C17.8501 8.79988 18.236 9.05769 18.6606 9.23358C19.0852 9.40947 19.5404 9.5 20 9.5C20.9283 9.5 21.8185 9.13125 22.4749 8.47487C23.1313 7.8185 23.5 6.92826 23.5 6C23.5 5.07174 23.1313 4.1815 22.4749 3.52513C21.8185 2.86875 20.9283 2.5 20 2.5ZM14 6C14 4.4087 14.6321 2.88258 15.7574 1.75736C16.8826 0.632141 18.4087 0 20 0C21.5913 0 23.1174 0.632141 24.2426 1.75736C25.3679 2.88258 26 4.4087 26 6C26 7.5913 25.3679 9.11742 24.2426 10.2426C23.1174 11.3679 21.5913 12 20 12C18.4087 12 16.8826 11.3679 15.7574 10.2426C14.6321 9.11742 14 7.5913 14 6ZM33 4.5C32.337 4.5 31.7011 4.76339 31.2322 5.23223C30.7634 5.70107 30.5 6.33696 30.5 7C30.5 7.66304 30.7634 8.29893 31.2322 8.76777C31.7011 9.23661 32.337 9.5 33 9.5C33.663 9.5 34.2989 9.23661 34.7678 8.76777C35.2366 8.29893 35.5 7.66304 35.5 7C35.5 6.33696 35.2366 5.70107 34.7678 5.23223C34.2989 4.76339 33.663 4.5 33 4.5ZM28 7C28 5.67392 28.5268 4.40215 29.4645 3.46447C30.4021 2.52678 31.6739 2 33 2C34.3261 2 35.5979 2.52678 36.5355 3.46447C37.4732 4.40215 38 5.67392 38 7C38 8.32608 37.4732 9.59785 36.5355 10.5355C35.5979 11.4732 34.3261 12 33 12C31.6739 12 30.4021 11.4732 29.4645 10.5355C28.5268 9.59785 28 8.32608 28 7ZM4.5 7C4.5 6.33696 4.76339 5.70107 5.23223 5.23223C5.70107 4.76339 6.33696 4.5 7 4.5C7.66304 4.5 8.29893 4.76339 8.76777 5.23223C9.23661 5.70107 9.5 6.33696 9.5 7C9.5 7.66304 9.23661 8.29893 8.76777 8.76777C8.29893 9.23661 7.66304 9.5 7 9.5C6.33696 9.5 5.70107 9.23661 5.23223 8.76777C4.76339 8.29893 4.5 7.66304 4.5 7ZM7 2C5.67392 2 4.40215 2.52678 3.46447 3.46447C2.52678 4.40215 2 5.67392 2 7C2 8.32608 2.52678 9.59785 3.46447 10.5355C4.40215 11.4732 5.67392 12 7 12C8.32608 12 9.59785 11.4732 10.5355 10.5355C11.4732 9.59785 12 8.32608 12 7C12 5.67392 11.4732 4.40215 10.5355 3.46447C9.59785 2.52678 8.32608 2 7 2ZM11 18.25C11 17.1228 11.4478 16.0418 12.2448 15.2448C13.0418 14.4478 14.1228 14 15.25 14H24.75C25.8772 14 26.9582 14.4478 27.7552 15.2448C28.5522 16.0418 29 17.1228 29 18.25V29C29 31.3869 28.0518 33.6761 26.364 35.364C24.6761 37.0518 22.3869 38 20 38C17.6131 38 15.3239 37.0518 13.636 35.364C11.9482 33.6761 11 31.3869 11 29V18.25ZM20 35.5C21.7239 35.5 23.3772 34.8152 24.5962 33.5962C25.8152 32.3772 26.5 30.7239 26.5 29V18.25C26.5 17.7859 26.3156 17.3408 25.9874 17.0126C25.6592 16.6844 25.2141 16.5 24.75 16.5H15.25C14.7859 16.5 14.3408 16.6844 14.0126 17.0126C13.6844 17.3408 13.5 17.7859 13.5 18.25V29C13.5 30.7239 14.1848 32.3772 15.4038 33.5962C16.6228 34.8152 18.2761 35.5 20 35.5ZM7 32.5C7.83626 32.5013 8.65618 32.2685 9.367 31.828C9.586 32.654 9.899 33.441 10.293 34.178C9.22634 34.7466 8.0306 35.0294 6.82222 34.9987C5.61384 34.968 4.434 34.6249 3.39759 34.0028C2.36117 33.3807 1.50351 32.5009 0.9081 31.4489C0.312693 30.397 -0.00016108 29.2088 1.17658e-07 28V18.251C-0.000131224 17.6928 0.109701 17.14 0.323225 16.6243C0.536749 16.1085 0.849781 15.6399 1.24444 15.2451C1.6391 14.8504 2.10767 14.5373 2.62336 14.3236C3.13906 14.11 3.6918 14 4.25 14H9.75C10.038 14 10.32 14.029 10.591 14.083C9.96822 14.7781 9.50929 15.604 9.248 16.5H4.25C3.78587 16.5 3.34075 16.6844 3.01256 17.0126C2.68437 17.3408 2.5 17.7859 2.5 18.25V28C2.5 29.1935 2.97411 30.3381 3.81802 31.182C4.66193 32.0259 5.80653 32.5 7 32.5ZM33 35C31.8515 35.0019 30.7202 34.7198 29.707 34.179C30.101 33.441 30.414 32.654 30.633 31.828C31.3147 32.2496 32.0966 32.4815 32.898 32.4997C33.6993 32.5178 34.491 32.3216 35.1911 31.9314C35.8912 31.5411 36.4744 30.9709 36.8803 30.2797C37.2862 29.5886 37.5001 28.8015 37.5 28V18.25C37.5 17.7859 37.3156 17.3408 36.9874 17.0126C36.6592 16.6844 36.2141 16.5 35.75 16.5H30.752C30.4904 15.6039 30.0311 14.778 29.408 14.083C29.681 14.029 29.962 14 30.25 14H35.75C36.8772 14 37.9582 14.4478 38.7552 15.2448C39.5522 16.0418 40 17.1228 40 18.25V28C40 29.8565 39.2625 31.637 37.9497 32.9497C36.637 34.2625 34.8565 35 33 35Z" fill="white"/>
</svg>
