<svg width="14" height="15" viewBox="0 0 14 15" fill="none" xmlns="http://www.w3.org/2000/svg">
<path d="M1 15C0.71667 15 0.479004 14.904 0.287004 14.712C0.0950036 14.52 -0.000663206 14.2827 3.4602e-06 14C3.4602e-06 13.7167 0.0960036 13.479 0.288004 13.287C0.480004 13.095 0.717337 12.9993 1 13H13C13.2833 13 13.521 13.096 13.713 13.288C13.905 13.48 14.0007 13.7173 14 14C14 14.2833 13.904 14.521 13.712 14.713C13.52 14.905 13.2827 15.0007 13 15H1ZM5.35 6.6H8.65L7.05 2.05H6.95L5.35 6.6ZM3.175 11C2.80834 11 2.54567 10.879 2.387 10.637C2.22834 10.395 2.216 10.1077 2.35 9.775L5.65 0.925C5.75 0.675 5.929 0.458333 6.187 0.275C6.445 0.0916668 6.716 0 7 0C7.28334 0 7.55 0.0916668 7.8 0.275C8.05 0.458333 8.225 0.675 8.325 0.925L11.625 9.775C11.7583 10.1083 11.7417 10.396 11.575 10.638C11.4083 10.88 11.1417 11.0007 10.775 11C10.6083 11 10.45 10.9457 10.3 10.837C10.15 10.7283 10.05 10.5993 10 10.45L9.25 8.2H4.8L3.975 10.45C3.925 10.6 3.825 10.7293 3.675 10.838C3.525 10.9467 3.35834 11.0007 3.175 11Z" fill="white"/>
</svg>
