<svg width="30" height="30" viewBox="0 0 30 30" fill="none" xmlns="http://www.w3.org/2000/svg">
<path d="M15.0007 19.2043L15.0007 1M15.0007 1L19.2017 5.90116M15.0007 1L10.7997 5.90116" stroke="white" stroke-width="1.5" stroke-linecap="round" stroke-linejoin="round"/>
<path d="M22.0023 10.8051C25.048 10.8219 26.6976 10.9577 27.773 12.0331C29.0039 13.264 29.0039 15.2441 29.0039 19.2042L29.0039 20.6046C29.0039 24.5661 29.0039 26.5462 27.773 27.7771C26.5435 29.0066 24.5621 29.0066 20.6019 29.0066L9.39927 29.0066C5.43914 29.0066 3.45767 29.0066 2.22818 27.7771C1.15133 26.7002 1.0169 25.0506 1.00009 22.0049M7.99894 10.8051C4.95323 10.8219 3.30364 10.9577 2.22818 12.0331C1.32917 12.9308 1.08691 14.2289 1.0211 16.4036" stroke="white" stroke-width="1.5" stroke-linecap="round"/>
</svg>
