<svg width="35" height="32" viewBox="0 0 35 32" fill="none" xmlns="http://www.w3.org/2000/svg">
<path d="M10.7692 8.01067L10.7665 18.6587C10.7667 18.8998 10.8328 19.1365 10.958 19.3434C11.0832 19.5502 11.2626 19.7196 11.4773 19.8334C11.692 19.9473 11.9338 20.0013 12.177 19.9898C12.4202 19.9783 12.6557 19.9016 12.8585 19.768L20.93 14.4453C21.1144 14.3236 21.2655 14.1586 21.3701 13.9651C21.4746 13.7716 21.5293 13.5555 21.5293 13.336C21.5293 13.1165 21.4746 12.9004 21.3701 12.7069C21.2655 12.5134 21.1144 12.3484 20.93 12.2267L12.8612 6.90133C12.6584 6.76772 12.4229 6.69107 12.1797 6.67955C11.9365 6.66802 11.6947 6.72206 11.48 6.83589C11.2653 6.94973 11.0859 7.1191 10.9607 7.32598C10.8355 7.53286 10.7694 7.76949 10.7692 8.01067ZM0 6C0 4.4087 0.638219 2.88258 1.77426 1.75736C2.91029 0.632141 4.45109 0 6.05769 0H23.5577C25.1643 0 26.7051 0.632141 27.8411 1.75736C28.9772 2.88258 29.6154 4.4087 29.6154 6V20.6667C29.6154 22.258 28.9772 23.7841 27.8411 24.9093C26.7051 26.0345 25.1643 26.6667 23.5577 26.6667H6.05769C4.45109 26.6667 2.91029 26.0345 1.77426 24.9093C0.638219 23.7841 0 22.258 0 20.6667V6ZM6.05769 2.66667C4.2 2.66667 2.69231 4.16 2.69231 6V20.6667C2.69231 22.5067 4.2 24 6.05769 24H23.5577C25.4154 24 26.9231 22.5067 26.9231 20.6667V6C26.9231 4.16 25.4154 2.66667 23.5577 2.66667H6.05769ZM5.38462 29.3333C6.61231 30.952 8.56692 32 10.7692 32H24.9038C27.5815 32 30.1495 30.9464 32.0429 29.0711C33.9363 27.1957 35 24.6522 35 22V10.6667C35 8.48533 33.9419 6.54933 32.3077 5.33333V22C32.3077 23.9449 31.5276 25.8102 30.1392 27.1855C28.7507 28.5607 26.8675 29.3333 24.9038 29.3333H5.38462Z" fill="white"/>
</svg>
